# xmcd
#
# Track frame offsets: 
#        150
#        14175
#        27450
#        39675
#        55500
#        71025
#        83287
#        94987
#        107400
#        119962
#        132075
#        146550
#        159600
#        167925
#        181150
#        194700
#        206080
#        217877
#        232125
#        244650
#
# Disc length: 3459 seconds
#
# Revision: 2
# Processed by: cddbd v1.5.2PL0 Copyright (c) Steve Scherf et al.
# Submitted via: ExactAudioCopy v0.95b4
#
DISCID=2a0d8114
DTITLE=Various Artist - Led Zeppelin's Sources Of Inspiration
DYEAR=1995
DGENRE=Blues
TTITLE0=Smokestack Lightnin' - Howlin' Wolf
TTITLE1=No Place To Go - Howlin' Wolf
TTITLE2=Bring It On Home - Baba Blues
TTITLE3=You Need Love - Baba Blues
TTITLE4=I Can't Quit You Baby - Otis Rush
TTITLE5=The Train Kept a Rolling - Tiny Bradshaw
TTITLE6=As Long As I Have You - Little Walter
TTITLE7=I'm A Man - Bo Diddley
TTITLE8=I Need You - Elmore James
TTITLE9=How Many More Years - Howlin' Wolf
TTITLE10=When The Levee Breaks - Memphis Minnie and Kansas Joe
TTITLE11=That's No Way To Get Along - Robert Wilkins
TTITLE12=Bottle Up and Go - Snooks Eaglin
TTITLE13=Mannish Boy - Muddy Waters
TTITLE14=Shane 'em Down - Bukka White
TTITLE15=Kindhearted Woman - Robert Johnson
TTITLE16=Come On In My Kitchen - Robert Johnson
TTITLE17=Milk Cow Blues - Kokomo Arnold
TTITLE18=Travelling Riverside Blues - Robert Johnson
TTITLE19=Shake 'em On Down - Fred Mcdowell
EXTD=
EXTT0=
EXTT1=
EXTT2=
EXTT3=
EXTT4=
EXTT5=
EXTT6=
EXTT7=
EXTT8=
EXTT9=
EXTT10=
EXTT11=
EXTT12=
EXTT13=
EXTT14=
EXTT15=
EXTT16=
EXTT17=
EXTT18=
EXTT19=
PLAYORDER=
